<?xml version="1.0" standalone="no"?>
<svg xmlns:xlink="http://www.w3.org/1999/xlink" id="wave" style="transform:rotate(0deg); transition: 0.3s" viewBox="0 0 1440 350" version="1.1" xmlns="http://www.w3.org/2000/svg"><defs><linearGradient id="sw-gradient-0" x1="0" x2="0" y1="1" y2="0"><stop stop-color="rgba(182.438, 18.086, 255, 1)" offset="0%"/><stop stop-color="rgba(0, 29.68, 193.811, 1)" offset="100%"/></linearGradient></defs><path style="transform:translate(0, 0px); opacity:1" fill="url(#sw-gradient-0)" d="M0,0L24,23.3C48,47,96,93,144,145.8C192,198,240,257,288,250.8C336,245,384,175,432,175C480,175,528,245,576,250.8C624,257,672,198,720,169.2C768,140,816,140,864,151.7C912,163,960,187,1008,198.3C1056,210,1104,210,1152,192.5C1200,175,1248,140,1296,105C1344,70,1392,35,1440,64.2C1488,93,1536,187,1584,239.2C1632,292,1680,303,1728,262.5C1776,222,1824,128,1872,128.3C1920,128,1968,222,2016,250.8C2064,280,2112,245,2160,215.8C2208,187,2256,163,2304,140C2352,117,2400,93,2448,110.8C2496,128,2544,187,2592,186.7C2640,187,2688,128,2736,122.5C2784,117,2832,163,2880,151.7C2928,140,2976,70,3024,40.8C3072,12,3120,23,3168,46.7C3216,70,3264,105,3312,110.8C3360,117,3408,93,3432,81.7L3456,70L3456,350L3432,350C3408,350,3360,350,3312,350C3264,350,3216,350,3168,350C3120,350,3072,350,3024,350C2976,350,2928,350,2880,350C2832,350,2784,350,2736,350C2688,350,2640,350,2592,350C2544,350,2496,350,2448,350C2400,350,2352,350,2304,350C2256,350,2208,350,2160,350C2112,350,2064,350,2016,350C1968,350,1920,350,1872,350C1824,350,1776,350,1728,350C1680,350,1632,350,1584,350C1536,350,1488,350,1440,350C1392,350,1344,350,1296,350C1248,350,1200,350,1152,350C1104,350,1056,350,1008,350C960,350,912,350,864,350C816,350,768,350,720,350C672,350,624,350,576,350C528,350,480,350,432,350C384,350,336,350,288,350C240,350,192,350,144,350C96,350,48,350,24,350L0,350Z"/></svg>