<svg id="visual" viewBox="0 0 900 600" width="900" height="600" xmlns="http://www.w3.org/2000/svg" xmlns:xlink="http://www.w3.org/1999/xlink" version="1.1"><rect x="0" y="0" width="900" height="600" fill="#001220"></rect><path d="M0 268L25 262.2C50 256.3 100 244.7 150 232.7C200 220.7 250 208.3 300 205.3C350 202.3 400 208.7 450 211.2C500 213.7 550 212.3 600 206.5C650 200.7 700 190.3 750 194.2C800 198 850 216 875 225L900 234L900 0L875 0C850 0 800 0 750 0C700 0 650 0 600 0C550 0 500 0 450 0C400 0 350 0 300 0C250 0 200 0 150 0C100 0 50 0 25 0L0 0Z" fill="#d100ff"></path><path d="M0 213L25 208.5C50 204 100 195 150 183.7C200 172.3 250 158.7 300 164.2C350 169.7 400 194.3 450 210.7C500 227 550 235 600 225.2C650 215.3 700 187.7 750 183.2C800 178.7 850 197.3 875 206.7L900 216L900 0L875 0C850 0 800 0 750 0C700 0 650 0 600 0C550 0 500 0 450 0C400 0 350 0 300 0C250 0 200 0 150 0C100 0 50 0 25 0L0 0Z" fill="#d400be"></path><path d="M0 184L25 178.5C50 173 100 162 150 158.7C200 155.3 250 159.7 300 166.3C350 173 400 182 450 174C500 166 550 141 600 137C650 133 700 150 750 155.7C800 161.3 850 155.7 875 152.8L900 150L900 0L875 0C850 0 800 0 750 0C700 0 650 0 600 0C550 0 500 0 450 0C400 0 350 0 300 0C250 0 200 0 150 0C100 0 50 0 25 0L0 0Z" fill="#c2008a"></path><path d="M0 95L25 97.5C50 100 100 105 150 109.8C200 114.7 250 119.3 300 121.7C350 124 400 124 450 115.2C500 106.3 550 88.7 600 79.2C650 69.7 700 68.3 750 67.8C800 67.3 850 67.7 875 67.8L900 68L900 0L875 0C850 0 800 0 750 0C700 0 650 0 600 0C550 0 500 0 450 0C400 0 350 0 300 0C250 0 200 0 150 0C100 0 50 0 25 0L0 0Z" fill="#a60060"></path><path d="M0 68L25 71C50 74 100 80 150 73.7C200 67.3 250 48.7 300 46C350 43.3 400 56.7 450 64.2C500 71.7 550 73.3 600 68.3C650 63.3 700 51.7 750 51.3C800 51 850 62 875 67.5L900 73L900 0L875 0C850 0 800 0 750 0C700 0 650 0 600 0C550 0 500 0 450 0C400 0 350 0 300 0C250 0 200 0 150 0C100 0 50 0 25 0L0 0Z" fill="#860d3f"></path></svg>