<svg id="visual" viewBox="0 0 900 600" width="900" height="600" xmlns="http://www.w3.org/2000/svg" xmlns:xlink="http://www.w3.org/1999/xlink" version="1.1"><rect x="0" y="0" width="900" height="600" fill="#001220"></rect><path d="M0 330L25 335.8C50 341.7 100 353.3 150 365.3C200 377.3 250 389.7 300 392.7C350 395.7 400 389.3 450 386.8C500 384.3 550 385.7 600 391.5C650 397.3 700 407.7 750 403.8C800 400 850 382 875 373L900 364L900 601L875 601C850 601 800 601 750 601C700 601 650 601 600 601C550 601 500 601 450 601C400 601 350 601 300 601C250 601 200 601 150 601C100 601 50 601 25 601L0 601Z" fill="#d100ff"></path><path d="M0 385L25 389.5C50 394 100 403 150 414.3C200 425.7 250 439.3 300 433.8C350 428.3 400 403.7 450 387.3C500 371 550 363 600 372.8C650 382.7 700 410.3 750 414.8C800 419.3 850 400.7 875 391.3L900 382L900 601L875 601C850 601 800 601 750 601C700 601 650 601 600 601C550 601 500 601 450 601C400 601 350 601 300 601C250 601 200 601 150 601C100 601 50 601 25 601L0 601Z" fill="#d400be"></path><path d="M0 414L25 419.5C50 425 100 436 150 439.3C200 442.7 250 438.3 300 431.7C350 425 400 416 450 424C500 432 550 457 600 461C650 465 700 448 750 442.3C800 436.7 850 442.3 875 445.2L900 448L900 601L875 601C850 601 800 601 750 601C700 601 650 601 600 601C550 601 500 601 450 601C400 601 350 601 300 601C250 601 200 601 150 601C100 601 50 601 25 601L0 601Z" fill="#c2008a"></path><path d="M0 503L25 500.5C50 498 100 493 150 488.2C200 483.3 250 478.7 300 476.3C350 474 400 474 450 482.8C500 491.7 550 509.3 600 518.8C650 528.3 700 529.7 750 530.2C800 530.7 850 530.3 875 530.2L900 530L900 601L875 601C850 601 800 601 750 601C700 601 650 601 600 601C550 601 500 601 450 601C400 601 350 601 300 601C250 601 200 601 150 601C100 601 50 601 25 601L0 601Z" fill="#a60060"></path><path d="M0 530L25 527C50 524 100 518 150 524.3C200 530.7 250 549.3 300 552C350 554.7 400 541.3 450 533.8C500 526.3 550 524.7 600 529.7C650 534.7 700 546.3 750 546.7C800 547 850 536 875 530.5L900 525L900 601L875 601C850 601 800 601 750 601C700 601 650 601 600 601C550 601 500 601 450 601C400 601 350 601 300 601C250 601 200 601 150 601C100 601 50 601 25 601L0 601Z" fill="#860d3f"></path></svg>