<svg id="visual" viewBox="0 0 900 600" width="900" height="600" xmlns="http://www.w3.org/2000/svg" xmlns:xlink="http://www.w3.org/1999/xlink" version="1.1"><rect x="0" y="0" width="900" height="600" fill="#001220"></rect><path d="M0 375L25 379.8C50 384.7 100 394.3 150 404.3C200 414.3 250 424.7 300 427.2C350 429.7 400 424.3 450 422.2C500 420 550 421 600 425.8C650 430.7 700 439.3 750 436.2C800 433 850 418 875 410.5L900 403L900 601L875 601C850 601 800 601 750 601C700 601 650 601 600 601C550 601 500 601 450 601C400 601 350 601 300 601C250 601 200 601 150 601C100 601 50 601 25 601L0 601Z" fill="#d100ff"></path><path d="M0 420L25 423.8C50 427.7 100 435.3 150 444.8C200 454.3 250 465.7 300 461.2C350 456.7 400 436.3 450 422.7C500 409 550 402 600 410.2C650 418.3 700 441.7 750 445.7C800 449.7 850 434.3 875 426.7L900 419L900 601L875 601C850 601 800 601 750 601C700 601 650 601 600 601C550 601 500 601 450 601C400 601 350 601 300 601C250 601 200 601 150 601C100 601 50 601 25 601L0 601Z" fill="#ad04e6"></path><path d="M0 445L25 449.5C50 454 100 463 150 465.8C200 468.7 250 465.3 300 459.8C350 454.3 400 446.7 450 453.3C500 460 550 481 600 484.3C650 487.7 700 473.3 750 468.7C800 464 850 469 875 471.5L900 474L900 601L875 601C850 601 800 601 750 601C700 601 650 601 600 601C550 601 500 601 450 601C400 601 350 601 300 601C250 601 200 601 150 601C100 601 50 601 25 601L0 601Z" fill="#8b04cd"></path><path d="M0 519L25 517C50 515 100 511 150 507C200 503 250 499 300 497C350 495 400 495 450 502.3C500 509.7 550 524.3 600 532.3C650 540.3 700 541.7 750 542.2C800 542.7 850 542.3 875 542.2L900 542L900 601L875 601C850 601 800 601 750 601C700 601 650 601 600 601C550 601 500 601 450 601C400 601 350 601 300 601C250 601 200 601 150 601C100 601 50 601 25 601L0 601Z" fill="#6a02b4"></path><path d="M0 542L25 539.5C50 537 100 532 150 537.2C200 542.3 250 557.7 300 559.8C350 562 400 551 450 544.8C500 538.7 550 537.3 600 541.5C650 545.7 700 555.3 750 555.7C800 556 850 547 875 542.5L900 538L900 601L875 601C850 601 800 601 750 601C700 601 650 601 600 601C550 601 500 601 450 601C400 601 350 601 300 601C250 601 200 601 150 601C100 601 50 601 25 601L0 601Z" fill="#4b009a"></path></svg>