<svg id="visual" viewBox="0 0 900 600" width="900" height="600" xmlns="http://www.w3.org/2000/svg" xmlns:xlink="http://www.w3.org/1999/xlink" version="1.1"><rect x="0" y="0" width="900" height="600" fill="#001220"></rect><path d="M0 370L25 379.2C50 388.3 100 406.7 150 417.3C200 428 250 431 300 428.7C350 426.3 400 418.7 450 408C500 397.3 550 383.7 600 382C650 380.3 700 390.7 750 392C800 393.3 850 385.7 875 381.8L900 378L900 601L875 601C850 601 800 601 750 601C700 601 650 601 600 601C550 601 500 601 450 601C400 601 350 601 300 601C250 601 200 601 150 601C100 601 50 601 25 601L0 601Z" fill="#fcaf3c"></path><path d="M0 383L25 391.5C50 400 100 417 150 426C200 435 250 436 300 432.3C350 428.7 400 420.3 450 424.7C500 429 550 446 600 441.7C650 437.3 700 411.7 750 405.7C800 399.7 850 413.3 875 420.2L900 427L900 601L875 601C850 601 800 601 750 601C700 601 650 601 600 601C550 601 500 601 450 601C400 601 350 601 300 601C250 601 200 601 150 601C100 601 50 601 25 601L0 601Z" fill="#fca632"></path><path d="M0 470L25 462C50 454 100 438 150 432C200 426 250 430 300 428.5C350 427 400 420 450 419.5C500 419 550 425 600 431.7C650 438.3 700 445.7 750 445.8C800 446 850 439 875 435.5L900 432L900 601L875 601C850 601 800 601 750 601C700 601 650 601 600 601C550 601 500 601 450 601C400 601 350 601 300 601C250 601 200 601 150 601C100 601 50 601 25 601L0 601Z" fill="#fd9d28"></path><path d="M0 464L25 465.8C50 467.7 100 471.3 150 475.3C200 479.3 250 483.7 300 482.8C350 482 400 476 450 473.7C500 471.3 550 472.7 600 469.5C650 466.3 700 458.7 750 462.3C800 466 850 481 875 488.5L900 496L900 601L875 601C850 601 800 601 750 601C700 601 650 601 600 601C550 601 500 601 450 601C400 601 350 601 300 601C250 601 200 601 150 601C100 601 50 601 25 601L0 601Z" fill="#fd931e"></path><path d="M0 524L25 517.7C50 511.3 100 498.7 150 494.2C200 489.7 250 493.3 300 497C350 500.7 400 504.3 450 506.7C500 509 550 510 600 507.3C650 504.7 700 498.3 750 495.7C800 493 850 494 875 494.5L900 495L900 601L875 601C850 601 800 601 750 601C700 601 650 601 600 601C550 601 500 601 450 601C400 601 350 601 300 601C250 601 200 601 150 601C100 601 50 601 25 601L0 601Z" fill="#fe8914"></path><path d="M0 525L25 526C50 527 100 529 150 527.3C200 525.7 250 520.3 300 521.5C350 522.7 400 530.3 450 535.3C500 540.3 550 542.7 600 539.2C650 535.7 700 526.3 750 522.7C800 519 850 521 875 522L900 523L900 601L875 601C850 601 800 601 750 601C700 601 650 601 600 601C550 601 500 601 450 601C400 601 350 601 300 601C250 601 200 601 150 601C100 601 50 601 25 601L0 601Z" fill="#fe7e09"></path><path d="M0 548L25 552.2C50 556.3 100 564.7 150 567.3C200 570 250 567 300 566.7C350 566.3 400 568.7 450 569.7C500 570.7 550 570.3 600 571.7C650 573 700 576 750 576.7C800 577.3 850 575.7 875 574.8L900 574L900 601L875 601C850 601 800 601 750 601C700 601 650 601 600 601C550 601 500 601 450 601C400 601 350 601 300 601C250 601 200 601 150 601C100 601 50 601 25 601L0 601Z" fill="#ff7300"></path></svg>