<svg id="visual" viewBox="0 0 900 600" width="900" height="600" xmlns="http://www.w3.org/2000/svg" xmlns:xlink="http://www.w3.org/1999/xlink" version="1.1"><rect x="0" y="0" width="900" height="600" fill="#001220"></rect><path d="M0 274L25 263C50 252 100 230 150 217.2C200 204.3 250 200.7 300 203.3C350 206 400 215 450 227.7C500 240.3 550 256.7 600 258.7C650 260.7 700 248.3 750 246.8C800 245.3 850 254.7 875 259.3L900 264L900 0L875 0C850 0 800 0 750 0C700 0 650 0 600 0C550 0 500 0 450 0C400 0 350 0 300 0C250 0 200 0 150 0C100 0 50 0 25 0L0 0Z" fill="#fcaf3c"></path><path d="M0 259L25 248.7C50 238.3 100 217.7 150 206.7C200 195.7 250 194.3 300 198.8C350 203.3 400 213.7 450 208.7C500 203.7 550 183.3 600 188.3C650 193.3 700 223.7 750 230.7C800 237.7 850 221.3 875 213.2L900 205L900 0L875 0C850 0 800 0 750 0C700 0 650 0 600 0C550 0 500 0 450 0C400 0 350 0 300 0C250 0 200 0 150 0C100 0 50 0 25 0L0 0Z" fill="#ff9a3a"></path><path d="M0 154L25 163.5C50 173 100 192 150 199C200 206 250 201 300 202.8C350 204.7 400 213.3 450 214C500 214.7 550 207.3 600 199.3C650 191.3 700 182.7 750 182.5C800 182.3 850 190.7 875 194.8L900 199L900 0L875 0C850 0 800 0 750 0C700 0 650 0 600 0C550 0 500 0 450 0C400 0 350 0 300 0C250 0 200 0 150 0C100 0 50 0 25 0L0 0Z" fill="#ff853c"></path><path d="M0 161L25 158.8C50 156.7 100 152.3 150 147.5C200 142.7 250 137.3 300 138.3C350 139.3 400 146.7 450 149.5C500 152.3 550 150.7 600 154.3C650 158 700 167 750 162.7C800 158.3 850 140.7 875 131.8L900 123L900 0L875 0C850 0 800 0 750 0C700 0 650 0 600 0C550 0 500 0 450 0C400 0 350 0 300 0C250 0 200 0 150 0C100 0 50 0 25 0L0 0Z" fill="#ff6f42"></path><path d="M0 89L25 96.7C50 104.3 100 119.7 150 125.2C200 130.7 250 126.3 300 122C350 117.7 400 113.3 450 110.5C500 107.7 550 106.3 600 109.5C650 112.7 700 120.3 750 123.5C800 126.7 850 125.3 875 124.7L900 124L900 0L875 0C850 0 800 0 750 0C700 0 650 0 600 0C550 0 500 0 450 0C400 0 350 0 300 0C250 0 200 0 150 0C100 0 50 0 25 0L0 0Z" fill="#ff574b"></path><path d="M0 88L25 86.8C50 85.7 100 83.3 150 85.3C200 87.3 250 93.7 300 92.2C350 90.7 400 81.3 450 75.3C500 69.3 550 66.7 600 70.8C650 75 700 86 750 90.3C800 94.7 850 92.3 875 91.2L900 90L900 0L875 0C850 0 800 0 750 0C700 0 650 0 600 0C550 0 500 0 450 0C400 0 350 0 300 0C250 0 200 0 150 0C100 0 50 0 25 0L0 0Z" fill="#ff3957"></path><path d="M0 61L25 55.8C50 50.7 100 40.3 150 37C200 33.7 250 37.3 300 37.8C350 38.3 400 35.7 450 34.5C500 33.3 550 33.7 600 32C650 30.3 700 26.7 750 25.8C800 25 850 27 875 28L900 29L900 0L875 0C850 0 800 0 750 0C700 0 650 0 600 0C550 0 500 0 450 0C400 0 350 0 300 0C250 0 200 0 150 0C100 0 50 0 25 0L0 0Z" fill="#ff0066"></path></svg>