<svg id="visual" viewBox="0 0 900 600" width="900" height="600" xmlns="http://www.w3.org/2000/svg" xmlns:xlink="http://www.w3.org/1999/xlink" version="1.1"><rect x="0" y="0" width="900" height="600" fill="#001220"></rect><path d="M0 359L25 365.5C50 372 100 385 150 386C200 387 250 376 300 373.2C350 370.3 400 375.7 450 369.7C500 363.7 550 346.3 600 341.7C650 337 700 345 750 349.7C800 354.3 850 355.7 875 356.3L900 357L900 601L875 601C850 601 800 601 750 601C700 601 650 601 600 601C550 601 500 601 450 601C400 601 350 601 300 601C250 601 200 601 150 601C100 601 50 601 25 601L0 601Z" fill="#00c0b4"></path><path d="M0 384L25 382C50 380 100 376 150 369.8C200 363.7 250 355.3 300 363.8C350 372.3 400 397.7 450 400.7C500 403.7 550 384.3 600 380.2C650 376 700 387 750 383.2C800 379.3 850 360.7 875 351.3L900 342L900 601L875 601C850 601 800 601 750 601C700 601 650 601 600 601C550 601 500 601 450 601C400 601 350 601 300 601C250 601 200 601 150 601C100 601 50 601 25 601L0 601Z" fill="#00b4d0"></path><path d="M0 374L25 387.8C50 401.7 100 429.3 150 433C200 436.7 250 416.3 300 404.8C350 393.3 400 390.7 450 396.8C500 403 550 418 600 428C650 438 700 443 750 441.5C800 440 850 432 875 428L900 424L900 601L875 601C850 601 800 601 750 601C700 601 650 601 600 601C550 601 500 601 450 601C400 601 350 601 300 601C250 601 200 601 150 601C100 601 50 601 25 601L0 601Z" fill="#00a3e5"></path><path d="M0 420L25 429.7C50 439.3 100 458.7 150 460C200 461.3 250 444.7 300 435.2C350 425.7 400 423.3 450 430.7C500 438 550 455 600 456.7C650 458.3 700 444.7 750 443.2C800 441.7 850 452.3 875 457.7L900 463L900 601L875 601C850 601 800 601 750 601C700 601 650 601 600 601C550 601 500 601 450 601C400 601 350 601 300 601C250 601 200 601 150 601C100 601 50 601 25 601L0 601Z" fill="#2c8de8"></path><path d="M0 483L25 487.3C50 491.7 100 500.3 150 503.8C200 507.3 250 505.7 300 498.5C350 491.3 400 478.7 450 480.5C500 482.3 550 498.7 600 503.3C650 508 700 501 750 495C800 489 850 484 875 481.5L900 479L900 601L875 601C850 601 800 601 750 601C700 601 650 601 600 601C550 601 500 601 450 601C400 601 350 601 300 601C250 601 200 601 150 601C100 601 50 601 25 601L0 601Z" fill="#876fd2"></path><path d="M0 500L25 507.5C50 515 100 530 150 533.3C200 536.7 250 528.3 300 526.3C350 524.3 400 528.7 450 530.7C500 532.7 550 532.3 600 527C650 521.7 700 511.3 750 513C800 514.7 850 528.3 875 535.2L900 542L900 601L875 601C850 601 800 601 750 601C700 601 650 601 600 601C550 601 500 601 450 601C400 601 350 601 300 601C250 601 200 601 150 601C100 601 50 601 25 601L0 601Z" fill="#b64aa4"></path><path d="M0 564L25 562.2C50 560.3 100 556.7 150 551.5C200 546.3 250 539.7 300 538.5C350 537.3 400 541.7 450 547.2C500 552.7 550 559.3 600 561.2C650 563 700 560 750 559.3C800 558.7 850 560.3 875 561.2L900 562L900 601L875 601C850 601 800 601 750 601C700 601 650 601 600 601C550 601 500 601 450 601C400 601 350 601 300 601C250 601 200 601 150 601C100 601 50 601 25 601L0 601Z" fill="#c62368"></path></svg>