<svg id="visual" viewBox="0 0 900 600" width="900" height="600" xmlns="http://www.w3.org/2000/svg" xmlns:xlink="http://www.w3.org/1999/xlink" version="1.1"><rect x="0" y="0" width="900" height="600" fill="#001220"></rect><path d="M0 259L25 259.2C50 259.3 100 259.7 150 254.2C200 248.7 250 237.3 300 236.8C350 236.3 400 246.7 450 247C500 247.3 550 237.7 600 244.2C650 250.7 700 273.3 750 282.8C800 292.3 850 288.7 875 286.8L900 285L900 0L875 0C850 0 800 0 750 0C700 0 650 0 600 0C550 0 500 0 450 0C400 0 350 0 300 0C250 0 200 0 150 0C100 0 50 0 25 0L0 0Z" fill="#00c0b4"></path><path d="M0 198L25 191.3C50 184.7 100 171.3 150 168C200 164.7 250 171.3 300 175.2C350 179 400 180 450 178.3C500 176.7 550 172.3 600 176C650 179.7 700 191.3 750 194.7C800 198 850 193 875 190.5L900 188L900 0L875 0C850 0 800 0 750 0C700 0 650 0 600 0C550 0 500 0 450 0C400 0 350 0 300 0C250 0 200 0 150 0C100 0 50 0 25 0L0 0Z" fill="#88c48f"></path><path d="M0 157L25 156.5C50 156 100 155 150 158.8C200 162.7 250 171.3 300 170.5C350 169.7 400 159.3 450 149.2C500 139 550 129 600 134.2C650 139.3 700 159.7 750 161.5C800 163.3 850 146.7 875 138.3L900 130L900 0L875 0C850 0 800 0 750 0C700 0 650 0 600 0C550 0 500 0 450 0C400 0 350 0 300 0C250 0 200 0 150 0C100 0 50 0 25 0L0 0Z" fill="#c7c28a"></path><path d="M0 84L25 93.2C50 102.3 100 120.7 150 125.7C200 130.7 250 122.3 300 114.8C350 107.3 400 100.7 450 95C500 89.3 550 84.7 600 90.5C650 96.3 700 112.7 750 118.5C800 124.3 850 119.7 875 117.3L900 115L900 0L875 0C850 0 800 0 750 0C700 0 650 0 600 0C550 0 500 0 450 0C400 0 350 0 300 0C250 0 200 0 150 0C100 0 50 0 25 0L0 0Z" fill="#ecc2a4"></path><path d="M0 44L25 48C50 52 100 60 150 61C200 62 250 56 300 52.5C350 49 400 48 450 47C500 46 550 45 600 49.8C650 54.7 700 65.3 750 70.2C800 75 850 74 875 73.5L900 73L900 0L875 0C850 0 800 0 750 0C700 0 650 0 600 0C550 0 500 0 450 0C400 0 350 0 300 0C250 0 200 0 150 0C100 0 50 0 25 0L0 0Z" fill="#f7caca"></path></svg>