<svg id="visual" viewBox="0 0 900 600" width="900" height="600" xmlns="http://www.w3.org/2000/svg" xmlns:xlink="http://www.w3.org/1999/xlink" version="1.1"><rect x="0" y="0" width="900" height="600" fill="#001220"></rect><path d="M0 339L25 338.8C50 338.7 100 338.3 150 343.8C200 349.3 250 360.7 300 361.2C350 361.7 400 351.3 450 351C500 350.7 550 360.3 600 353.8C650 347.3 700 324.7 750 315.2C800 305.7 850 309.3 875 311.2L900 313L900 601L875 601C850 601 800 601 750 601C700 601 650 601 600 601C550 601 500 601 450 601C400 601 350 601 300 601C250 601 200 601 150 601C100 601 50 601 25 601L0 601Z" fill="#00c0b4"></path><path d="M0 400L25 406.7C50 413.3 100 426.7 150 430C200 433.3 250 426.7 300 422.8C350 419 400 418 450 419.7C500 421.3 550 425.7 600 422C650 418.3 700 406.7 750 403.3C800 400 850 405 875 407.5L900 410L900 601L875 601C850 601 800 601 750 601C700 601 650 601 600 601C550 601 500 601 450 601C400 601 350 601 300 601C250 601 200 601 150 601C100 601 50 601 25 601L0 601Z" fill="#88c48f"></path><path d="M0 441L25 441.5C50 442 100 443 150 439.2C200 435.3 250 426.7 300 427.5C350 428.3 400 438.7 450 448.8C500 459 550 469 600 463.8C650 458.7 700 438.3 750 436.5C800 434.7 850 451.3 875 459.7L900 468L900 601L875 601C850 601 800 601 750 601C700 601 650 601 600 601C550 601 500 601 450 601C400 601 350 601 300 601C250 601 200 601 150 601C100 601 50 601 25 601L0 601Z" fill="#c7c28a"></path><path d="M0 514L25 505C50 496 100 478 150 473C200 468 250 476 300 483.3C350 490.7 400 497.3 450 503C500 508.7 550 513.3 600 507.5C650 501.7 700 485.3 750 479.5C800 473.7 850 478.3 875 480.7L900 483L900 601L875 601C850 601 800 601 750 601C700 601 650 601 600 601C550 601 500 601 450 601C400 601 350 601 300 601C250 601 200 601 150 601C100 601 50 601 25 601L0 601Z" fill="#ecc2a4"></path><path d="M0 554L25 550C50 546 100 538 150 537C200 536 250 542 300 545.5C350 549 400 550 450 551C500 552 550 553 600 548.2C650 543.3 700 532.7 750 527.8C800 523 850 524 875 524.5L900 525L900 601L875 601C850 601 800 601 750 601C700 601 650 601 600 601C550 601 500 601 450 601C400 601 350 601 300 601C250 601 200 601 150 601C100 601 50 601 25 601L0 601Z" fill="#f7caca"></path></svg>