<svg id="visual" viewBox="0 0 900 600" width="900" height="600" xmlns="http://www.w3.org/2000/svg" xmlns:xlink="http://www.w3.org/1999/xlink" version="1.1"><rect x="0" y="0" width="900" height="600" fill="#001220"></rect><path d="M0 232L21.5 221.5C43 211 86 190 128.8 181.8C171.7 173.7 214.3 178.3 257.2 180.7C300 183 343 183 385.8 187.7C428.7 192.3 471.3 201.7 514.2 210.5C557 219.3 600 227.7 642.8 224.5C685.7 221.3 728.3 206.7 771.2 206.2C814 205.7 857 219.3 878.5 226.2L900 233L900 0L878.5 0C857 0 814 0 771.2 0C728.3 0 685.7 0 642.8 0C600 0 557 0 514.2 0C471.3 0 428.7 0 385.8 0C343 0 300 0 257.2 0C214.3 0 171.7 0 128.8 0C86 0 43 0 21.5 0L0 0Z" fill="#00c0b4"></path><path d="M0 185L21.5 183.8C43 182.7 86 180.3 128.8 180.7C171.7 181 214.3 184 257.2 181C300 178 343 169 385.8 160.7C428.7 152.3 471.3 144.7 514.2 147C557 149.3 600 161.7 642.8 171.7C685.7 181.7 728.3 189.3 771.2 185.5C814 181.7 857 166.3 878.5 158.7L900 151L900 0L878.5 0C857 0 814 0 771.2 0C728.3 0 685.7 0 642.8 0C600 0 557 0 514.2 0C471.3 0 428.7 0 385.8 0C343 0 300 0 257.2 0C214.3 0 171.7 0 128.8 0C86 0 43 0 21.5 0L0 0Z" fill="#009fcb"></path><path d="M0 121L21.5 116.8C43 112.7 86 104.3 128.8 110.5C171.7 116.7 214.3 137.3 257.2 135.8C300 134.3 343 110.7 385.8 104.2C428.7 97.7 471.3 108.3 514.2 117.7C557 127 600 135 642.8 138C685.7 141 728.3 139 771.2 132.8C814 126.7 857 116.3 878.5 111.2L900 106L900 0L878.5 0C857 0 814 0 771.2 0C728.3 0 685.7 0 642.8 0C600 0 557 0 514.2 0C471.3 0 428.7 0 385.8 0C343 0 300 0 257.2 0C214.3 0 171.7 0 128.8 0C86 0 43 0 21.5 0L0 0Z" fill="#0075c5"></path><path d="M0 68L21.5 68.8C43 69.7 86 71.3 128.8 75C171.7 78.7 214.3 84.3 257.2 89C300 93.7 343 97.3 385.8 101C428.7 104.7 471.3 108.3 514.2 104C557 99.7 600 87.3 642.8 86.5C685.7 85.7 728.3 96.3 771.2 96.5C814 96.7 857 86.3 878.5 81.2L900 76L900 0L878.5 0C857 0 814 0 771.2 0C728.3 0 685.7 0 642.8 0C600 0 557 0 514.2 0C471.3 0 428.7 0 385.8 0C343 0 300 0 257.2 0C214.3 0 171.7 0 128.8 0C86 0 43 0 21.5 0L0 0Z" fill="#0045ae"></path><path d="M0 64L21.5 65.7C43 67.3 86 70.7 128.8 66.5C171.7 62.3 214.3 50.7 257.2 43.2C300 35.7 343 32.3 385.8 37.3C428.7 42.3 471.3 55.7 514.2 54.8C557 54 600 39 642.8 36C685.7 33 728.3 42 771.2 46.7C814 51.3 857 51.7 878.5 51.8L900 52L900 0L878.5 0C857 0 814 0 771.2 0C728.3 0 685.7 0 642.8 0C600 0 557 0 514.2 0C471.3 0 428.7 0 385.8 0C343 0 300 0 257.2 0C214.3 0 171.7 0 128.8 0C86 0 43 0 21.5 0L0 0Z" fill="#0d0189"></path></svg>