<svg id="visual" viewBox="0 0 900 600" width="900" height="600" xmlns="http://www.w3.org/2000/svg" xmlns:xlink="http://www.w3.org/1999/xlink" version="1.1"><rect x="0" y="0" width="900" height="600" fill="#001220"></rect><path d="M0 366L21.5 376.5C43 387 86 408 128.8 416.2C171.7 424.3 214.3 419.7 257.2 417.3C300 415 343 415 385.8 410.3C428.7 405.7 471.3 396.3 514.2 387.5C557 378.7 600 370.3 642.8 373.5C685.7 376.7 728.3 391.3 771.2 391.8C814 392.3 857 378.7 878.5 371.8L900 365L900 601L878.5 601C857 601 814 601 771.2 601C728.3 601 685.7 601 642.8 601C600 601 557 601 514.2 601C471.3 601 428.7 601 385.8 601C343 601 300 601 257.2 601C214.3 601 171.7 601 128.8 601C86 601 43 601 21.5 601L0 601Z" fill="#00c0b4"></path><path d="M0 413L21.5 414.2C43 415.3 86 417.7 128.8 417.3C171.7 417 214.3 414 257.2 417C300 420 343 429 385.8 437.3C428.7 445.7 471.3 453.3 514.2 451C557 448.7 600 436.3 642.8 426.3C685.7 416.3 728.3 408.7 771.2 412.5C814 416.3 857 431.7 878.5 439.3L900 447L900 601L878.5 601C857 601 814 601 771.2 601C728.3 601 685.7 601 642.8 601C600 601 557 601 514.2 601C471.3 601 428.7 601 385.8 601C343 601 300 601 257.2 601C214.3 601 171.7 601 128.8 601C86 601 43 601 21.5 601L0 601Z" fill="#009fcb"></path><path d="M0 477L21.5 481.2C43 485.3 86 493.7 128.8 487.5C171.7 481.3 214.3 460.7 257.2 462.2C300 463.7 343 487.3 385.8 493.8C428.7 500.3 471.3 489.7 514.2 480.3C557 471 600 463 642.8 460C685.7 457 728.3 459 771.2 465.2C814 471.3 857 481.7 878.5 486.8L900 492L900 601L878.5 601C857 601 814 601 771.2 601C728.3 601 685.7 601 642.8 601C600 601 557 601 514.2 601C471.3 601 428.7 601 385.8 601C343 601 300 601 257.2 601C214.3 601 171.7 601 128.8 601C86 601 43 601 21.5 601L0 601Z" fill="#0075c5"></path><path d="M0 530L21.5 529.2C43 528.3 86 526.7 128.8 523C171.7 519.3 214.3 513.7 257.2 509C300 504.3 343 500.7 385.8 497C428.7 493.3 471.3 489.7 514.2 494C557 498.3 600 510.7 642.8 511.5C685.7 512.3 728.3 501.7 771.2 501.5C814 501.3 857 511.7 878.5 516.8L900 522L900 601L878.5 601C857 601 814 601 771.2 601C728.3 601 685.7 601 642.8 601C600 601 557 601 514.2 601C471.3 601 428.7 601 385.8 601C343 601 300 601 257.2 601C214.3 601 171.7 601 128.8 601C86 601 43 601 21.5 601L0 601Z" fill="#0045ae"></path><path d="M0 534L21.5 532.3C43 530.7 86 527.3 128.8 531.5C171.7 535.7 214.3 547.3 257.2 554.8C300 562.3 343 565.7 385.8 560.7C428.7 555.7 471.3 542.3 514.2 543.2C557 544 600 559 642.8 562C685.7 565 728.3 556 771.2 551.3C814 546.7 857 546.3 878.5 546.2L900 546L900 601L878.5 601C857 601 814 601 771.2 601C728.3 601 685.7 601 642.8 601C600 601 557 601 514.2 601C471.3 601 428.7 601 385.8 601C343 601 300 601 257.2 601C214.3 601 171.7 601 128.8 601C86 601 43 601 21.5 601L0 601Z" fill="#0d0189"></path></svg>