<svg id="visual" viewBox="0 0 900 600" width="900" height="600" xmlns="http://www.w3.org/2000/svg" xmlns:xlink="http://www.w3.org/1999/xlink" version="1.1"><rect x="0" y="0" width="900" height="600" fill="#001220"></rect><path d="M0 239L25 232.5C50 226 100 213 150 212C200 211 250 222 300 224.8C350 227.7 400 222.3 450 228.3C500 234.3 550 251.7 600 256.3C650 261 700 253 750 248.3C800 243.7 850 242.3 875 241.7L900 241L900 0L875 0C850 0 800 0 750 0C700 0 650 0 600 0C550 0 500 0 450 0C400 0 350 0 300 0C250 0 200 0 150 0C100 0 50 0 25 0L0 0Z" fill="#00c0b4"></path><path d="M0 214L25 216C50 218 100 222 150 228.2C200 234.3 250 242.7 300 234.2C350 225.7 400 200.3 450 197.3C500 194.3 550 213.7 600 217.8C650 222 700 211 750 214.8C800 218.7 850 237.3 875 246.7L900 256L900 0L875 0C850 0 800 0 750 0C700 0 650 0 600 0C550 0 500 0 450 0C400 0 350 0 300 0C250 0 200 0 150 0C100 0 50 0 25 0L0 0Z" fill="#00b4d0"></path><path d="M0 224L25 210.2C50 196.3 100 168.7 150 165C200 161.3 250 181.7 300 193.2C350 204.7 400 207.3 450 201.2C500 195 550 180 600 170C650 160 700 155 750 156.5C800 158 850 166 875 170L900 174L900 0L875 0C850 0 800 0 750 0C700 0 650 0 600 0C550 0 500 0 450 0C400 0 350 0 300 0C250 0 200 0 150 0C100 0 50 0 25 0L0 0Z" fill="#00a3e5"></path><path d="M0 178L25 168.3C50 158.7 100 139.3 150 138C200 136.7 250 153.3 300 162.8C350 172.3 400 174.7 450 167.3C500 160 550 143 600 141.3C650 139.7 700 153.3 750 154.8C800 156.3 850 145.7 875 140.3L900 135L900 0L875 0C850 0 800 0 750 0C700 0 650 0 600 0C550 0 500 0 450 0C400 0 350 0 300 0C250 0 200 0 150 0C100 0 50 0 25 0L0 0Z" fill="#2c8de8"></path><path d="M0 115L25 110.7C50 106.3 100 97.7 150 94.2C200 90.7 250 92.3 300 99.5C350 106.7 400 119.3 450 117.5C500 115.7 550 99.3 600 94.7C650 90 700 97 750 103C800 109 850 114 875 116.5L900 119L900 0L875 0C850 0 800 0 750 0C700 0 650 0 600 0C550 0 500 0 450 0C400 0 350 0 300 0C250 0 200 0 150 0C100 0 50 0 25 0L0 0Z" fill="#876fd2"></path><path d="M0 98L25 90.5C50 83 100 68 150 64.7C200 61.3 250 69.7 300 71.7C350 73.7 400 69.3 450 67.3C500 65.3 550 65.7 600 71C650 76.3 700 86.7 750 85C800 83.3 850 69.7 875 62.8L900 56L900 0L875 0C850 0 800 0 750 0C700 0 650 0 600 0C550 0 500 0 450 0C400 0 350 0 300 0C250 0 200 0 150 0C100 0 50 0 25 0L0 0Z" fill="#b64aa4"></path><path d="M0 34L25 35.8C50 37.7 100 41.3 150 46.5C200 51.7 250 58.3 300 59.5C350 60.7 400 56.3 450 50.8C500 45.3 550 38.7 600 36.8C650 35 700 38 750 38.7C800 39.3 850 37.7 875 36.8L900 36L900 0L875 0C850 0 800 0 750 0C700 0 650 0 600 0C550 0 500 0 450 0C400 0 350 0 300 0C250 0 200 0 150 0C100 0 50 0 25 0L0 0Z" fill="#c62368"></path></svg>